<svg width="1280" height="617" viewBox="0 0 1280 617" fill="none" xmlns="http://www.w3.org/2000/svg">
<path fill-rule="evenodd" clip-rule="evenodd" d="M1280 617H0V181.712H0.00643586C0.823369 81.2153 82.3756 0 182.857 0C246.46 0 302.479 32.5399 335.238 81.9127C367.998 32.5399 424.016 0 487.619 0C551.222 0 607.241 32.5399 640 81.9127C672.76 32.5399 728.778 0 792.381 0C855.984 0 912.003 32.54 944.762 81.9129C977.522 32.54 1033.54 0 1097.14 0C1197.62 0 1279.18 81.2153 1279.99 181.712H1280V182.865C1280 182.989 1280 183.112 1280 183.236C1280 183.36 1280 183.483 1280 183.607V617Z" fill="#F96247"/>
</svg>
