<svg width="40" height="40" viewBox="0 0 40 40" fill="none" xmlns="http://www.w3.org/2000/svg">
<path fill-rule="evenodd" clip-rule="evenodd" d="M6.54931 13.0984C6.54928 13.0984 6.54924 13.0984 6.5492 13.0984C2.93218 13.0984 0 10.1662 0 6.5492C0 2.93218 2.93218 0 6.5492 0C10.1662 0 13.0984 2.93218 13.0984 6.5492C13.0984 6.54921 13.0984 6.54922 13.0984 6.54922H13.0985C13.0985 6.54922 13.0985 6.54921 13.0985 6.5492C13.0985 2.93218 16.0307 0 19.6477 0C23.2647 0 26.1969 2.93218 26.1969 6.5492C26.1969 6.54921 26.1969 6.54922 26.1969 6.54922H26.1969C26.1969 6.54922 26.1969 6.54921 26.1969 6.5492C26.1969 2.93218 29.1291 0 32.7461 0C36.3632 0 39.2953 2.93218 39.2953 6.5492C39.2953 10.1662 36.3632 13.0984 32.7461 13.0984V13.0984C36.3632 13.0984 39.2953 16.0306 39.2953 19.6477C39.2953 23.2593 36.3718 26.1882 32.7621 26.1968H36.7068C38.1364 26.1968 39.2953 27.3558 39.2953 28.7854V39.9749H9.08883e-05V28.7853C9.08883e-05 27.3558 1.15901 26.1968 2.5886 26.1968H6.53332C2.92364 26.1882 9.08883e-05 23.2593 9.08883e-05 19.6477C9.08883e-05 16.0306 2.93227 13.0984 6.5493 13.0984C6.5493 13.0984 6.54931 13.0984 6.54931 13.0984V13.0984Z" fill="#F96247"/>
</svg>
