<svg width="1280" height="894" viewBox="0 0 1280 894" fill="none" xmlns="http://www.w3.org/2000/svg">
<path fill-rule="evenodd" clip-rule="evenodd" d="M335.238 693.725C302.478 814.091 246.46 893.42 182.857 893.42C81.8679 893.42 0 693.421 0 446.71C0 199.999 81.8679 0 182.857 0C246.46 0 302.478 79.329 335.238 199.695C367.997 79.329 424.016 0 487.619 0C551.222 0 607.24 79.3294 640 199.696C672.759 79.3294 728.778 0 792.381 0C855.984 0 912.003 79.3292 944.762 199.695C977.522 79.3292 1033.54 0 1097.14 0C1198.13 0 1280 199.999 1280 446.71C1280 693.421 1198.13 893.42 1097.14 893.42C1033.54 893.42 977.522 814.091 944.762 693.725C912.003 814.091 855.984 893.42 792.381 893.42C728.778 893.42 672.759 814.091 640 693.724C607.24 814.091 551.222 893.42 487.619 893.42C424.016 893.42 367.997 814.091 335.238 693.725Z" fill="#F96247"/>
</svg>
